# xmcd
#
# Track frame offsets:
# 150
# 13142
# 25657
# 34217
# 44312
# 56620
# 67862
# 76237
# 83920
# 92980
# 102802
# 110927
# 122935
# 135632
# 145235
# 154312
#
# Disc length: 2210 seconds
#
#
# Revision: 0
# Processed by: cddbd v1.5.2PL0 Copyright (c) Steve Scherf et al.
# Submitted via: FreeRIP 2.951 
#
DISCID=d908a010
DTITLE=Jerry Lee Lewis - The best of...
DYEAR=1987
DGENRE=Rock and Roll
TTITLE0=Whole LottShaing Goin' On
TTITLE1=It'll Be Me
TTITLE2=Great Balls Of Fire
TTITLE3=Down The Line
TTITLE4=Breathless
TTITLE5=High School Confidential
TTITLE6=Lovin' Up A Storm
TTITLE7=Big Blon' Baby
TTITLE8=Lewis Boogie
TTITLE9=Put Me Down
TTITLE10=Ubangi Stomp
TTITLE11=Break Up
TTITLE12=Roll Over Beethoven
TTITLE13=Maybellene
TTITLE14=Flip, Flop, Fly
TTITLE15=I Believe In You
EXTD=
EXTT0=
EXTT1=
EXTT2=
EXTT3=
EXTT4=
EXTT5=
EXTT6=
EXTT7=
EXTT8=
EXTT9=
EXTT10=
EXTT11=
EXTT12=
EXTT13=
EXTT14=
EXTT15=
PLAYORDER=
